<?xml version="1.0" standalone="no"?>
<!DOCTYPE svg PUBLIC "-//W3C//DTD SVG 20010904//EN"
 "http://www.w3.org/TR/2001/REC-SVG-20010904/DTD/svg10.dtd">
<svg version="1.0" xmlns="http://www.w3.org/2000/svg"
 width="512.000000pt" height="512.000000pt" viewBox="0 0 512.000000 512.000000"
 preserveAspectRatio="xMidYMid meet">

<g transform="translate(0.000000,512.000000) scale(0.100000,-0.100000)"
fill="#000000" stroke="none">
<path d="M1421 4435 c-596 -200 -1094 -371 -1107 -380 -43 -28 -74 -70 -89
-119 -18 -61 -20 -296 -3 -364 16 -64 86 -134 150 -150 35 -9 582 -12 2191
-12 2409 0 2213 -6 2285 75 52 59 62 104 62 268 0 169 -13 219 -74 275 -43 39
-75 51 -1137 403 -693 229 -1112 363 -1144 366 -44 3 -181 -41 -1134 -362z"/>
<path d="M530 3090 c0 -73 5 -122 14 -145 27 -64 36 -65 416 -65 380 0 389 1
416 65 9 23 14 72 14 145 l0 110 -430 0 -430 0 0 -110z"/>
<path d="M1602 3070 c3 -126 4 -130 31 -157 l27 -28 353 -3 c456 -4 437 -13
437 198 l0 120 -426 0 -426 0 4 -130z"/>
<path d="M2670 3080 c0 -133 8 -161 54 -185 27 -14 71 -16 383 -13 l353 3 27
28 c27 27 28 31 31 157 l4 130 -426 0 -426 0 0 -120z"/>
<path d="M3730 3090 c0 -73 5 -122 14 -145 27 -64 36 -65 416 -65 380 0 389 1
416 65 9 23 14 72 14 145 l0 110 -430 0 -430 0 0 -110z"/>
<path d="M640 1975 l0 -695 320 0 320 0 0 695 0 695 -320 0 -320 0 0 -695z"/>
<path d="M1710 1975 l0 -695 320 0 320 0 -2 693 -3 692 -317 3 -318 2 0 -695z"/>
<path d="M2777 2663 c-4 -3 -7 -316 -7 -695 l0 -688 320 0 320 0 0 695 0 695
-313 0 c-173 0 -317 -3 -320 -7z"/>
<path d="M3840 1975 l0 -695 320 0 320 0 0 695 0 695 -320 0 -320 0 0 -695z"/>
<path d="M445 1053 c-48 -25 -94 -74 -111 -118 -12 -33 -15 -73 -12 -197 3
-152 4 -156 33 -203 21 -35 45 -56 80 -74 l49 -26 2076 0 2076 0 49 26 c35 18
59 39 80 74 29 47 30 52 33 199 2 93 -1 166 -8 189 -14 47 -62 103 -111 128
-37 19 -79 19 -2121 19 -1877 -1 -2086 -2 -2113 -17z"/>
</g>
</svg>
